<svg width="120" height="48" viewBox="0 0 120 48" fill="none" xmlns="http://www.w3.org/2000/svg">
<path d="M120 0H105.333L96 18.6667V0H82.6667V16.096C79.4 6.72533 70.4853 0 60 0C49.5147 0 40.6 6.72533 37.3333 16.096V0H24V18.6667L14.6667 0H0L24 48H37.3333V31.904C40.6 41.2747 49.5147 48 60 48C70.4853 48 79.4 41.2747 82.6667 31.904V48H96L100.667 38.6667L105.333 48H120L108 24L120 0ZM60 34.6667C54.1173 34.6667 49.3333 29.8827 49.3333 24C49.3333 18.1173 54.1173 13.3333 60 13.3333C65.8827 13.3333 70.6667 18.1173 70.6667 24C70.6667 29.8827 65.8827 34.6667 60 34.6667Z" fill="#1CC6C1"/>
<path d="M60 28C62.2091 28 64 26.2091 64 24C64 21.7909 62.2091 20 60 20C57.7909 20 56 21.7909 56 24C56 26.2091 57.7909 28 60 28Z" fill="#1CC6C1"/>
</svg>
